<svg xmlns="http://www.w3.org/2000/svg" width="21.333" height="21.333" preserveAspectRatio="xMidYMid meet" version="1.0" viewBox="0 0 16 16"><metadata>Created by potrace 1.11, written by Peter Selinger 2001-2013</metadata><g fill="#000" stroke="none"><path d="M871 2178 c-8 -22 -6 -24 57 -35 36 -7 76 -20 88 -28 28 -18 42 -66 36 -120 -4 -42 -310 -1122 -363 -1281 -49 -149 -95 -205 -184 -224 -23 -4 -31 -12 -33 -33 l-3 -27 386 0 386 0 8 22 c7 20 5 23 -18 26 -89 10 -131 24 -157 55 -23 28 -26 37 -20 84 3 29 46 191 95 360 l88 308 41 3 41 3 17 -58 c9 -32 65 -224 124 -428 l107 -370 281 -3 282 -2 0 23 c0 21 -6 25 -45 30 -52 8 -96 28 -125 59 -32 34 -75 157 -169 483 l-87 302 71 22 c102 31 203 85 254 134 214 206 196 521 -37 645 -117 62 -140 65 -650 69 l-462 4 -9 -23z m786 -124 c64 -39 94 -100 101 -198 13 -199 -82 -371 -247 -449 -52 -25 -80 -31 -157 -35 l-93 -5 10 34 c5 19 46 160 90 314 44 154 87 302 96 329 l15 49 69 -5 c53 -4 80 -12 116 -34z" transform="translate(0.000000,16.000000) scale(0.006154,-0.006154)"/></g></svg>